<?xml version="1.0" encoding="utf-8"?>
<!-- Generator: Adobe Illustrator 13.0.0, SVG Export Plug-In  -->
<!DOCTYPE svg PUBLIC "-//W3C//DTD SVG 1.1//EN" "http://www.w3.org/Graphics/SVG/1.1/DTD/svg11.dtd" [
	<!ENTITY ns_flows "http://ns.adobe.com/Flows/1.0/">
]>
<svg version="1.1"
	 xmlns="http://www.w3.org/2000/svg" xmlns:xlink="http://www.w3.org/1999/xlink" xmlns:a="http://ns.adobe.com/AdobeSVGViewerExtensions/3.0/"
	 x="0px" y="0px" width="64px" height="64px" viewBox="0 0 64 64" enable-background="new 0 0 64 64" xml:space="preserve">
<defs>
</defs>
<linearGradient id="SVGID_1_" gradientUnits="userSpaceOnUse" x1="830.1729" y1="-1185.0732" x2="875.4279" y2="-1230.3284" gradientTransform="matrix(1 0 0 -1 -820.7988 -1175.7012)">
	<stop  offset="0" style="stop-color:#ACACAC"/>
	<stop  offset="1" style="stop-color:#C8C8C8"/>
</linearGradient>
<circle fill="url(#SVGID_1_)" cx="32" cy="32" r="32"/>
<linearGradient id="SVGID_2_" gradientUnits="userSpaceOnUse" x1="852.7988" y1="-1177.8921" x2="852.7988" y2="-1237.502" gradientTransform="matrix(1 0 0 -1 -820.7988 -1175.7012)">
	<stop  offset="0" style="stop-color:#B1B1B1"/>
	<stop  offset="1" style="stop-color:#F7F7F7"/>
</linearGradient>
<path fill="url(#SVGID_2_)" d="M32,61.801c-16.428,0-29.805-13.379-29.805-29.805C2.195,15.568,15.572,2.191,32,2.191
	c16.43,0,29.805,13.377,29.805,29.805C61.801,48.422,48.422,61.801,32,61.801L32,61.801z"/>
<path fill="#929292" d="M32,2c16.539,0,30,13.459,30,30c0,16.539-13.461,30-30,30C15.459,62,2,48.539,2,32C2,15.459,15.459,2,32,2
	 M32,2.4C15.676,2.4,2.4,15.68,2.4,32c0,16.32,13.28,29.602,29.6,29.602c16.32,0,29.602-13.281,29.602-29.602
	C61.602,15.676,48.32,2.4,32,2.4L32,2.4z"/>
<path id="path3278_4_" fill="#C8C8C8" d="M51.57,23.225c-0.105-3.012-2.023-4.42-4.82-5.041
	C47.586,20.004,48.02,21.385,51.57,23.225z"/>
<path id="path3246_4_" fill="#C8C8C8" d="M40.25,52.859c0,0,2.078,0.104,2.992-0.176c1.43-0.441,6.277-0.777,6.277-0.777
	s-2.457,2.402-5.353,2.516c-2.681,0.094-6.104-0.633-6.104-0.633L40.25,52.859z"/>
<path id="path3244_4_" fill="#C8C8C8" d="M28.084,56.898c0.316-0.035,4.771-2.031,7.369-3.25c2.609-1.234,3.484-1.992,4.055-2.898
	c2.027-3.164,4.473-3.195,4.473-3.195s-0.215,2.961-3.477,5.5c-1.363,1.063-1.77,0.672-3.746,1.523
	c-1.984,0.852-5.754,3.164-5.754,3.164L28.084,56.898z"/>
<path id="path3250_4_" fill="#C8C8C8" d="M54.555,48.789c0,0-1.229,2.266-3.742,2.469c-0.949,0.07-5.733,0.172-5.733,0.172
	s2.313-2.188,3.194-2.219C53.719,49.094,54.555,48.789,54.555,48.789z"/>
<path id="path3252_4_" fill="#C8C8C8" d="M56.996,42.129c-0.379,2.941-1.137,5.738-7.668,6.254c0,0,1.977-2.5,3.133-3.102
	C54.742,44.117,56.996,42.129,56.996,42.129z"/>
<path id="path3254_4_" fill="#C8C8C8" d="M49.781,39.266c2.359,2.771,1.664,5.672-1.477,8.945c0,0-0.406-2.734,0.258-3.867
	C48.797,43.945,49.711,40.672,49.781,39.266z"/>
<path id="path3256_4_" fill="#C8C8C8" d="M52.199,44.289c4.465-1.918,5.266-5.621,5.313-9.492l-0.254,0.609
	c0,0-2.344,1.906-3.195,3.223C53.266,39.859,52.199,44.289,52.199,44.289z"/>
<path id="path3258_4_" fill="#C8C8C8" d="M57.102,26.336c0.023,1.137,1.806,7.227-2.457,10.352c0,0-0.608-3.526,0-6.119
	C55.266,27.98,57.102,26.336,57.102,26.336z"/>
<path id="path3260_4_" fill="#C8C8C8" d="M54.289,19.852c0,0,1.852,2.457,1.82,4.861c-0.023,2.402-1.93,4.76-1.93,4.76
	c-0.646-2.668-0.832-4.596-0.414-6.225C54.027,22.209,54.336,21.096,54.289,19.852z"/>
<path id="path3262_4_" fill="#C8C8C8" d="M52.664,22.992c1.57-3.252,0.414-5.779-2.609-8.057
	C50.004,18.328,51.184,20.703,52.664,22.992z"/>
<path id="path3264_4_" fill="#C8C8C8" d="M49.469,17.396c0,0,0.438-2.205-0.734-3.764c-0.805-1.088-3.336-2.881-3.336-2.881
	s0.156,2.26,1.25,3.871c0.359,0.514,1.328,1.014,1.853,1.457C49.016,16.527,49.469,17.396,49.469,17.396z"/>
<path id="path3266_4_" fill="#C8C8C8" d="M41.473,8.191c2.918,1.248,3.051,2.645,3.398,4.029
	C43.367,11.064,41.648,10.012,41.473,8.191z"/>
<path id="path3268_4_" fill="#C8C8C8" d="M41.055,9.5c-1.453-0.752-2.727-1.664-3.344-3.244C39.824,7.023,41.164,8.031,41.055,9.5z"
	/>
<path id="path3270_4_" fill="#C8C8C8" d="M37.898,8.264c-0.728-0.531-1.074-1.305-3.363-0.844
	C35.055,8.129,36.344,8.291,37.898,8.264z"/>
<path id="path3272_4_" fill="#C8C8C8" d="M41.43,10.504c-0.859-1.279-2.762-1.5-5.09-1.287
	C37.473,10.275,39.094,10.783,41.43,10.504z"/>
<path id="path3274_4_" fill="#C8C8C8" d="M45.078,13.473c-2.664-0.057-5.219-0.205-6.105-1.732
	C42.273,11.027,43.82,12.111,45.078,13.473z"/>
<path id="path3276_4_" fill="#C8C8C8" d="M48.66,17.676c0,0-0.754-1.928-2.359-2.691c-0.754-0.365-3.816-0.789-3.816-0.789
	c0.759,0.928,1.423,2.057,2.816,2.525C46.508,17.133,47.676,17.283,48.66,17.676z"/>
<path id="path3280_4_" fill="#C8C8C8" d="M53.309,29.832c0.06-4.615-2.559-6.023-5.44-7.111c0,0,1.603,2.588,2.188,3.752
	C50.57,27.48,53.309,29.832,53.309,29.832z"/>
<path id="path3282_4_" fill="#C8C8C8" d="M53.699,35.211c0,0,0.66-1.789-0.277-3.752c-0.934-1.955-3.469-4.092-3.469-4.092
	s-0.148,3.537,1.281,5.156C51.781,33.141,53.699,35.211,53.699,35.211z"/>
<path id="path3284_4_" fill="#C8C8C8" d="M50.398,32.469c2.738,2.242,2.969,5.484,1.672,9.367
	C50.055,39.141,49.898,35.906,50.398,32.469z"/>
<path id="path3278_1_" fill="#C8C8C8" d="M17.252,18.184c-2.801,0.621-4.711,2.029-4.828,5.041
	C15.984,21.389,16.416,20.008,17.252,18.184z"/>
<path id="path3246_1_" fill="#C8C8C8" d="M25.932,53.789c0,0-3.42,0.727-6.1,0.633c-2.9-0.121-5.352-2.516-5.352-2.516
	s4.844,0.336,6.279,0.77c0.916,0.277,2.996,0.176,2.996,0.176L25.932,53.789z"/>
<path id="path3244_1_" fill="#C8C8C8" d="M32.992,57.742c0,0-3.771-2.305-5.748-3.164c-1.969-0.852-2.381-0.461-3.748-1.523
	c-3.264-2.531-3.48-5.5-3.48-5.5s2.449,0.039,4.484,3.203c0.564,0.906,1.436,1.664,4.045,2.898c2.6,1.219,7.057,3.215,7.377,3.25
	L32.992,57.742z"/>
<path id="path3250_1_" fill="#C8C8C8" d="M15.732,49.211c0.871,0.039,3.188,2.219,3.188,2.219s-4.787-0.094-5.732-0.172
	c-2.512-0.195-3.736-2.457-3.736-2.457S10.283,49.094,15.732,49.211z"/>
<path id="path3252_1_" fill="#C8C8C8" d="M11.535,45.281c1.16,0.59,3.133,3.09,3.133,3.09C8.141,47.859,7.385,45.07,7,42.117
	C7.004,42.129,9.26,44.117,11.535,45.281z"/>
<path id="path3254_1_" fill="#C8C8C8" d="M15.432,44.352c0.664,1.133,0.26,3.859,0.26,3.859c-3.139-3.273-3.832-6.164-1.482-8.945
	C14.287,40.672,15.199,43.945,15.432,44.352z"/>
<path id="path3256_1_" fill="#C8C8C8" d="M9.936,38.629c-0.852-1.316-3.184-3.223-3.184-3.223l-0.26-0.609
	c0.053,3.871,0.848,7.574,5.309,9.492C11.797,44.289,10.732,39.859,9.936,38.629z"/>
<path id="path3258_1_" fill="#C8C8C8" d="M9.355,30.572c0.613,2.588,0,6.116,0,6.116C5.088,33.57,6.877,27.473,6.893,26.34
	C6.893,26.34,8.736,27.984,9.355,30.572z"/>
<path id="path3260_1_" fill="#C8C8C8" d="M10.236,23.252c0.416,1.625,0.229,3.553-0.416,6.221c0,0-1.904-2.354-1.936-4.756
	c-0.033-2.404,1.828-4.865,1.828-4.865C9.66,21.1,9.973,22.209,10.236,23.252z"/>
<path id="path3262_1_" fill="#C8C8C8" d="M13.951,14.936c-3.039,2.277-4.188,4.805-2.619,8.057
	C12.816,20.703,13.996,18.328,13.951,14.936z"/>
<path id="path3264_1_" fill="#C8C8C8" d="M15.496,16.084c0.527-0.447,1.504-0.947,1.852-1.461c1.1-1.607,1.252-3.871,1.252-3.871
	s-2.531,1.793-3.336,2.881c-1.172,1.563-0.736,3.764-0.736,3.764S14.98,16.531,15.496,16.084z"/>
<path id="path3266_1_" fill="#C8C8C8" d="M19.129,12.221c0.348-1.385,0.482-2.781,3.395-4.029
	C22.348,10.012,20.637,11.064,19.129,12.221z"/>
<path id="path3268_1_" fill="#C8C8C8" d="M26.287,6.256c-0.611,1.58-1.895,2.496-3.34,3.244C22.832,8.035,24.172,7.027,26.287,6.256
	z"/>
<path id="path3270_1_" fill="#C8C8C8" d="M29.469,7.424c-2.293-0.465-2.641,0.313-3.365,0.84
	C27.656,8.291,28.947,8.133,29.469,7.424z"/>
<path id="path3272_1_" fill="#C8C8C8" d="M27.668,9.221c-2.332-0.209-4.24,0.012-5.1,1.287
	C24.904,10.787,26.527,10.275,27.668,9.221z"/>
<path id="path3274_1_" fill="#C8C8C8" d="M25.035,11.74c-0.895,1.527-3.451,1.676-6.107,1.732
	C20.18,12.111,21.717,11.031,25.035,11.74z"/>
<path id="path3276_1_" fill="#C8C8C8" d="M18.699,16.725c1.389-0.469,2.049-1.592,2.809-2.521c0,0-3.057,0.42-3.816,0.785
	c-1.6,0.768-2.355,2.688-2.355,2.688C16.324,17.287,17.488,17.137,18.699,16.725z"/>
<path id="path3280_1_" fill="#C8C8C8" d="M13.947,26.48c0.584-1.168,2.186-3.752,2.186-3.752c-2.885,1.084-5.5,2.492-5.438,7.107
	C10.695,29.836,13.436,27.48,13.947,26.48z"/>
<path id="path3282_1_" fill="#C8C8C8" d="M12.768,32.527c1.441-1.624,1.285-5.16,1.285-5.16s-2.537,2.137-3.473,4.092
	c-0.936,1.963-0.283,3.752-0.283,3.752S12.217,33.145,12.768,32.527z"/>
<path id="path3284_1_" fill="#C8C8C8" d="M11.928,41.836c-1.299-3.891-1.057-7.125,1.68-9.367
	C14.104,35.906,13.951,39.141,11.928,41.836z"/>
<path fill="#929292" d="M27.992,26.08c0.432-0.66,0.916-1.203,1.396-1.539c0.252-0.17,0.516-0.281,0.744-0.289
	c0.195-0.012,0.436,0.061,0.408,0.324c-0.037,0.4-0.697,0.916-1.5,1.252c-0.086,0.035-0.229,0.092-0.324,0.127
	c-0.229,0.426-0.426,0.832-0.617,1.193c-0.924,1.803-2.32,2.512-3.883,2.619c-0.637,0.037-1.43-0.031-1.961-0.408
	c-0.443,0.4-0.82,0.797-0.965,1.121c-0.031,0.072-0.055,0.115-0.092,0.104c-0.035-0.008-0.012-0.104,0-0.145
	c0.121-0.348,0.457-0.779,0.904-1.199c-0.256-0.229-0.484-0.625-0.447-1.133c0.096-1.176,1.623-1.799,2.512-1.863
	c0.637-0.061,1.596,0.084,1.947,0.611C26.775,26.584,27.355,26.332,27.992,26.08z M24.168,26.355
	c-0.84,0.061-2.008,0.588-2.092,1.709c-0.023,0.412,0.096,0.756,0.264,0.959c0.096-0.092,0.24-0.215,0.373-0.311
	c0.227-0.168,0.42-0.301,0.695-0.48c-0.129-0.125-0.225-0.281-0.248-0.461c-0.012-0.059,0-0.119,0.035-0.119
	c0.025,0,0.025,0.051,0.037,0.096c0.047,0.168,0.156,0.305,0.287,0.412c0.516-0.313,1.08-0.6,1.613-0.844
	c0.264-0.121,0.527-0.24,0.791-0.361C25.648,26.416,24.756,26.291,24.168,26.355z M23.592,28.363
	c-0.252,0.168-0.48,0.324-0.721,0.504c-0.143,0.109-0.264,0.209-0.398,0.313c0.443,0.432,1.215,0.533,1.852,0.48
	c1.275-0.104,2.199-0.936,3.068-2.523c0.18-0.313,0.348-0.613,0.527-0.881v-0.008c-0.588,0.24-1.129,0.469-1.721,0.744
	c0.049,0.107,0.072,0.244,0.072,0.371c-0.02,0.809-0.984,1.252-1.768,1.252C24.217,28.615,23.867,28.545,23.592,28.363z
	 M25.996,27.377c0-0.105-0.012-0.205-0.037-0.285c-0.25,0.117-0.516,0.24-0.807,0.373c-0.396,0.191-0.936,0.479-1.469,0.826
	c0.264,0.145,0.568,0.209,0.797,0.209C25.145,28.496,25.959,28.064,25.996,27.377z M29,25.709c0.664-0.277,1.359-0.736,1.408-1.133
	c0.023-0.168-0.121-0.24-0.275-0.217c-0.168,0.025-0.361,0.145-0.553,0.336c-0.217,0.205-0.553,0.689-0.793,1.092
	C28.844,25.764,28.943,25.732,29,25.709z"/>
<path fill="#929292" d="M28.508,28.096c-0.18,0.148-0.313,0.256-0.432,0.363c-0.096,0.086-0.148,0.121-0.18,0.098
	c-0.025-0.025,0-0.072,0.131-0.193c0.133-0.119,0.564-0.479,0.854-0.672c0.311-0.219,0.467-0.264,0.695-0.264
	c0.252,0,0.275,0.037,0.133,0.191c-0.213,0.24-0.408,0.465-0.648,0.77c-0.205,0.252-0.348,0.467-0.42,0.588
	c-0.072,0.131-0.084,0.215-0.037,0.268c0.061,0.047,0.168,0.023,0.289-0.041c0.119-0.059,0.324-0.191,0.527-0.359
	c0.252-0.203,0.359-0.299,0.553-0.48c0.107-0.096,0.156-0.143,0.191-0.107c0.035,0.036-0.096,0.156-0.133,0.191
	c-0.143,0.145-0.443,0.412-0.684,0.602c-0.24,0.195-0.652,0.496-1.047,0.496c-0.252,0-0.361-0.121-0.361-0.313
	c0-0.156,0.084-0.316,0.18-0.457c0.244-0.375,0.713-0.867,0.904-1.035C28.939,27.771,28.688,27.951,28.508,28.096z M30.709,25.801
	c0.154,0,0.227,0.131,0.082,0.311c-0.143,0.197-0.443,0.324-0.563,0.324c-0.061-0.068-0.072-0.248-0.012-0.404
	c0.07-0.18,0.252-0.23,0.479-0.23h0.014V25.801z"/>
<path fill="#929292" d="M30.549,27.977c-0.182,0.156-0.361,0.324-0.492,0.443c-0.072,0.064-0.109,0.076-0.133,0.039
	c-0.012-0.039,0.023-0.074,0.061-0.107c0.047-0.051,0.504-0.443,0.875-0.756c0.313-0.4,0.904-1.127,1.42-1.719
	c0.408-0.48,0.9-1.014,1.43-1.492c0.144-0.133,0.274-0.205,0.433-0.205c0.116,0,0.18,0.049,0.18,0.084
	c-0.227,0.229-1.279,1.393-1.789,1.992c-0.803,0.98-1.672,2.096-1.924,2.648c-0.031,0.084-0.107,0.252-0.023,0.328
	c0.084,0.059,0.264-0.016,0.371-0.076c0.16-0.084,0.328-0.205,0.496-0.336c0.217-0.168,0.373-0.301,0.529-0.443
	c0.047-0.049,0.143-0.133,0.18-0.102c0.023,0.025-0.012,0.076-0.084,0.145c-0.145,0.148-0.443,0.412-0.732,0.629
	c-0.244,0.184-0.684,0.479-1.084,0.479c-0.24,0-0.383-0.104-0.371-0.324c0.012-0.287,0.311-0.76,0.672-1.215L30.549,27.977z"/>
<path fill="#929292" d="M34.297,28.688c-0.133,0.084-0.301,0.18-0.506,0.289c-0.363,0.191-0.73,0.371-1.154,0.504
	c-0.109,0.035-0.313,0.088-0.408,0.088c-0.084,0-0.168-0.023-0.18-0.145c-0.014-0.076,0.047-0.148,0.107-0.221
	c0.168-0.191,0.397-0.455,0.588-0.695c0.172-0.221,0.348-0.467,0.443-0.66c0.037-0.076,0.037-0.145,0-0.172
	c-0.043-0.035-0.127-0.012-0.181,0.016c-0.131,0.061-0.323,0.205-0.467,0.324c-0.193,0.156-0.445,0.385-0.506,0.443
	c-0.047,0.049-0.096,0.072-0.119,0.049s0-0.076,0.049-0.119c0.07-0.072,0.467-0.434,0.64-0.568c0.289-0.229,0.588-0.416,0.84-0.416
	c0.229,0,0.373,0.131,0.336,0.416c-0.023,0.221-0.203,0.508-0.42,0.768c-0.256,0.328-0.555,0.615-0.688,0.736
	c0.313-0.084,0.722-0.275,1.084-0.469c0.121-0.059,0.408-0.227,0.524-0.324c0.017-0.229,0.156-0.516,0.281-0.684
	c0.211-0.313,0.418-0.484,0.578-0.443c0.141,0.031,0.125,0.248,0.031,0.428c-0.086,0.145-0.273,0.455-0.766,0.783
	c0.023,0.117,0.129,0.182,0.262,0.193c0.168,0.012,0.371-0.053,0.582-0.193c0.141-0.107,0.25-0.207,0.297-0.252
	c0.063-0.063,0.145-0.131,0.18-0.096c0.023,0.023-0.047,0.109-0.117,0.18c-0.073,0.072-0.145,0.133-0.289,0.24
	c-0.211,0.145-0.405,0.229-0.641,0.229C34.488,28.916,34.332,28.82,34.297,28.688z"/>
<path fill="#929292" d="M37.367,28.939c0.227-0.156,0.504-0.375,0.734-0.58c0.073-0.063,0.108-0.076,0.133-0.047
	c0.022,0.035-0.023,0.092-0.098,0.156c-0.156,0.143-0.544,0.455-0.755,0.6c-0.5,0.336-0.944,0.492-1.358,0.492
	c-0.445,0-0.648-0.168-0.633-0.48c0.008-0.244,0.116-0.457,0.358-0.748l-0.017-0.004c-0.039,0.035-0.172,0.156-0.241,0.217
	c-0.063,0.043-0.095,0.055-0.121,0.035c-0.027-0.035,0.026-0.084,0.065-0.137c0.156-0.143,0.267-0.227,0.445-0.359
	c0.133-0.096,0.367-0.24,0.59-0.359c0.348-0.18,0.711-0.336,1.031-0.336h0.016c0.262,0,0.363,0.168,0.349,0.324
	c-0.021,0.314-0.406,0.551-0.767,0.73c-0.352,0.172-0.758,0.313-1.031,0.389c-0.051,0.096-0.073,0.203-0.073,0.275
	c0,0.18,0.098,0.277,0.276,0.277C36.43,29.389,36.836,29.301,37.367,28.939z M36.953,28.34c0.305-0.207,0.484-0.455,0.5-0.623
	c0.008-0.109-0.039-0.168-0.148-0.168s-0.289,0.115-0.531,0.348c-0.188,0.18-0.491,0.563-0.633,0.803
	C36.383,28.641,36.703,28.508,36.953,28.34z"/>
<path fill="#929292" d="M40.176,27.729c0,0.156-0.285,0.408-0.551,0.719c-0.211,0.24-0.352,0.445-0.414,0.564
	c-0.059,0.107-0.059,0.191-0.008,0.232c0.047,0.035,0.133,0.023,0.262-0.053c0.129-0.072,0.348-0.203,0.543-0.359
	c0.266-0.203,0.406-0.324,0.563-0.469c0.087-0.084,0.156-0.119,0.181-0.096c0.039,0.037-0.047,0.109-0.142,0.209
	c-0.147,0.123-0.383,0.344-0.688,0.572c-0.254,0.195-0.672,0.479-1.074,0.479c-0.254,0-0.383-0.127-0.371-0.311
	c0.012-0.262,0.313-0.598,0.578-0.854c0.285-0.275,0.75-0.6,0.777-0.688c0.059-0.127-0.176-0.092-0.473-0.092
	c-0.117,0-0.219,0-0.273-0.023c-0.102,0.104-0.27,0.271-0.461,0.455c-0.203,0.193-0.352,0.324-0.484,0.443
	c-0.104,0.098-0.156,0.121-0.18,0.098c-0.023-0.025,0.016-0.084,0.133-0.193c0.148-0.131,0.25-0.23,0.469-0.432
	c0.172-0.156,0.328-0.313,0.418-0.42c-0.108-0.072-0.117-0.24,0-0.383c0.105-0.125,0.271-0.209,0.457-0.209
	c0.099,0,0.211,0.049,0.22,0.115c-0.078,0.064-0.134,0.102-0.203,0.174c-0.156,0.168-0.117,0.25,0.039,0.264
	c0.336,0.012,0.685,0.023,0.685,0.244v0.014H40.176z"/>
<path fill="#929292" d="M21.359,39.82c-0.66,0-1.383-0.18-1.416-0.867c-0.012-0.398,0.289-0.82,0.721-0.82
	c0.275,0,0.48,0.172,0.455,0.414c-0.023,0.188-0.143,0.313-0.264,0.406c-0.107,0.109-0.203,0.172-0.227,0.305
	c-0.049,0.234,0.264,0.414,0.867,0.414c1.031,0,2.656-0.742,3.92-1.68c1.104-0.805,2.164-1.891,3.352-2.996
	c-0.576-0.105-1.336-0.191-2.379-0.191c-1.313,0-2.572,0.492-2.801,1.578c-0.096,0.477,0.049,1.082,0.82,1.344
	c0.096,0.039,0.156,0.023,0.145,0.063c-0.018,0.03-0.102,0.047-0.232,0.008c-0.701-0.202-1.061-0.813-1-1.452
	c0.119-1.117,1.211-1.853,3.088-1.781c1,0.039,1.924,0.233,2.463,0.313c0.061-0.059,0.145-0.141,0.229-0.215
	c0.113-0.098,0.268-0.23,0.393-0.223c0.18,0.031,0.156,0.125-0.012,0.313c-0.061,0.078-0.109,0.121-0.168,0.195
	c0.299,0.051,0.652,0.074,0.879,0.063c0.324-0.012,0.816-0.047,1.24-0.219c0.4-0.164,0.652-0.359,0.801-0.547
	c0.156-0.195,0.072-0.266,0.131-0.289c0.084-0.031,0.096,0.164,0.037,0.297c-0.072,0.156-0.18,0.328-0.457,0.602
	c-0.58,0.603-1.443,1.539-2.008,2.25c-0.627,0.781-1.275,1.633-1.287,2.082c0,0.099,0.061,0.156,0.156,0.156
	c0.191,0,0.527-0.18,0.916-0.492c0.238-0.188,0.443-0.367,0.576-0.492c0.059-0.051,0.107-0.098,0.143-0.065
	c0.025,0.039-0.023,0.082-0.107,0.172c-0.156,0.142-0.373,0.336-0.672,0.578c-0.24,0.194-0.652,0.47-0.988,0.478
	c-0.301,0.016-0.527-0.095-0.539-0.438c-0.014-0.438,0.371-1,0.887-1.664c0.48-0.625,1.385-1.604,1.996-2.125h-0.012
	c-0.805,0.603-1.623,1.272-2.416,1.961c-0.916,0.789-1.611,1.414-2.297,2.063c-0.143,0.133-0.203,0.233-0.311,0.156
	c-0.096-0.078-0.037-0.228,0.035-0.32c0.697-0.978,1.9-2.992,2.549-3.805h-0.012c-0.445,0.438-2.008,1.983-3.08,2.766
	c-1.189,0.891-2.85,1.711-4.102,1.711h-0.012V39.82z M29.439,36.367c0.664-0.539,1.24-0.984,1.865-1.414v-0.016
	c-0.35,0.133-0.793,0.18-1.152,0.19c-0.275,0-0.625-0.026-0.924-0.065c-0.588,0.852-1.457,2.457-2.045,3.242
	C27.652,37.883,28.611,37.039,29.439,36.367z"/>
<path fill="#929292" d="M32.088,38.945c0.232-0.156,0.508-0.375,0.736-0.578c0.072-0.063,0.107-0.078,0.131-0.047
	c0.025,0.031-0.023,0.094-0.096,0.156c-0.156,0.141-0.54,0.453-0.756,0.602c-0.504,0.336-0.951,0.492-1.359,0.492
	c-0.443,0-0.652-0.172-0.637-0.484c0.012-0.242,0.121-0.449,0.361-0.742l-0.014-0.016c-0.035,0.039-0.168,0.156-0.238,0.219
	c-0.061,0.047-0.098,0.055-0.125,0.031c-0.02-0.031,0.027-0.078,0.076-0.133c0.156-0.141,0.264-0.228,0.443-0.359
	c0.133-0.094,0.361-0.238,0.588-0.359c0.35-0.18,0.709-0.336,1.033-0.336h0.012c0.264,0,0.358,0.172,0.348,0.328
	c-0.021,0.313-0.404,0.547-0.764,0.727c-0.352,0.173-0.76,0.313-1.037,0.392c-0.047,0.095-0.07,0.203-0.07,0.272
	c0,0.181,0.096,0.281,0.275,0.281C31.152,39.391,31.564,39.305,32.088,38.945z M31.68,38.344c0.301-0.211,0.48-0.461,0.496-0.625
	c0.012-0.109-0.035-0.172-0.145-0.172c-0.107,0-0.287,0.117-0.527,0.352c-0.195,0.181-0.496,0.563-0.641,0.806
	C31.104,38.641,31.428,38.508,31.68,38.344z"/>
<path fill="#929292" d="M34.938,37.406c0.228,0.031,0.313,0.227,0.263,0.406h0.012c0.375-0.539,0.931-1.228,1.539-1.938
	c0.418-0.492,0.914-1.013,1.427-1.492c0.133-0.133,0.276-0.202,0.44-0.202c0.125,0,0.172,0.038,0.188,0.086
	c-0.32,0.313-0.923,0.977-1.367,1.491c-0.402,0.453-0.806,0.94-1.508,1.836c-0.367,0.484-0.884,1.195-0.992,1.384
	c-0.086,0.147-0.086,0.241-0.039,0.28c0.063,0.048,0.18,0,0.277-0.06c0.12-0.055,0.348-0.211,0.543-0.366
	c0.25-0.203,0.444-0.379,0.577-0.492c0.07-0.06,0.134-0.121,0.164-0.082c0.039,0.031-0.022,0.091-0.155,0.22
	c-0.156,0.141-0.445,0.391-0.673,0.569c-0.241,0.195-0.637,0.483-1.03,0.483c-0.23,0-0.336-0.108-0.353-0.25
	c-0.008-0.133,0.063-0.305,0.164-0.438l-0.008-0.008c-0.313,0.273-0.865,0.672-1.322,0.695c-0.265,0.016-0.539-0.094-0.492-0.484
	c0.023-0.18,0.121-0.367,0.337-0.625l-0.013-0.008c-0.035,0.031-0.084,0.086-0.155,0.141c-0.048,0.039-0.084,0.063-0.107,0.039
	c-0.023-0.039,0.061-0.129,0.191-0.25c0.036-0.039,0.217-0.18,0.336-0.266c0.121-0.082,0.313-0.219,0.557-0.336
	C34.156,37.523,34.602,37.352,34.938,37.406z M33.779,38.281c-0.492,0.477-0.695,0.797-0.672,0.953
	c0.012,0.082,0.072,0.117,0.156,0.117c0.229,0,0.684-0.267,1.01-0.563c0.387-0.345,0.819-0.858,0.828-1.047
	c0.016-0.156-0.082-0.224-0.211-0.224C34.648,37.523,34.219,37.852,33.779,38.281z"/>
<path fill="#929292" d="M39.316,37.406c0.254-0.016,0.276,0.047,0.156,0.188c-0.156,0.18-0.418,0.484-0.673,0.797
	c-0.155,0.188-0.313,0.398-0.418,0.586c-0.086,0.148-0.086,0.242-0.039,0.281c0.063,0.047,0.181,0,0.273-0.059
	c0.125-0.051,0.352-0.207,0.543-0.363c0.254-0.203,0.44-0.375,0.582-0.492c0.069-0.063,0.129-0.125,0.163-0.086
	c0.039,0.031-0.022,0.09-0.155,0.219c-0.156,0.142-0.444,0.392-0.672,0.57c-0.242,0.195-0.642,0.484-1.031,0.484
	c-0.233,0-0.344-0.109-0.353-0.25c-0.016-0.133,0.056-0.305,0.164-0.438l-0.008-0.009c-0.313,0.272-0.867,0.672-1.324,0.694
	c-0.262,0.017-0.539-0.094-0.491-0.483c0.026-0.18,0.12-0.366,0.336-0.625l-0.013-0.008c-0.039,0.03-0.086,0.086-0.155,0.142
	c-0.048,0.039-0.086,0.063-0.109,0.039c-0.022-0.039,0.044-0.105,0.173-0.228c0.034-0.039,0.241-0.203,0.362-0.289
	c0.113-0.082,0.324-0.22,0.556-0.336c0.469-0.242,0.887-0.392,1.198-0.337c0.242,0.031,0.328,0.255,0.255,0.453
	C38.922,37.563,39.125,37.406,39.316,37.406z M37.227,38.281c-0.492,0.477-0.699,0.797-0.672,0.953
	c0.008,0.082,0.074,0.117,0.156,0.117c0.227,0,0.68-0.267,1.008-0.563c0.383-0.345,0.816-0.858,0.828-1.047
	c0.016-0.156-0.082-0.224-0.215-0.224C38.086,37.523,37.656,37.852,37.227,38.281z"/>
<path fill="#929292" d="M40.281,37.977c-0.18,0.156-0.359,0.328-0.492,0.445c-0.07,0.063-0.109,0.078-0.133,0.039
	c-0.008-0.039,0.023-0.07,0.063-0.109c0.047-0.047,0.508-0.444,0.875-0.758c0.313-0.398,0.91-1.121,1.422-1.719
	c0.406-0.477,0.898-1.012,1.43-1.492c0.142-0.133,0.273-0.203,0.431-0.203c0.121,0,0.181,0.047,0.181,0.086
	c-0.23,0.23-1.281,1.396-1.789,1.992c-0.806,0.977-1.672,2.094-1.922,2.648c-0.035,0.086-0.109,0.254-0.023,0.328
	c0.086,0.055,0.266-0.017,0.371-0.078c0.16-0.078,0.324-0.203,0.496-0.336c0.219-0.164,0.375-0.297,0.531-0.445
	c0.047-0.047,0.141-0.133,0.18-0.094c0.022,0.027-0.017,0.074-0.086,0.141c-0.148,0.148-0.445,0.418-0.734,0.625
	c-0.246,0.188-0.688,0.484-1.086,0.484c-0.242,0-0.383-0.109-0.367-0.328c0.008-0.289,0.313-0.758,0.672-1.211L40.281,37.977z"/>
</svg>
